<svg xmlns="http://www.w3.org/2000/svg" xmlns:xlink="http://www.w3.org/1999/xlink" version="1.1" x="0px" y="0px" viewBox="0 0 512 640" enable-background="new 0 0 512 512" xml:space="preserve"><g><g><path fill-rule="evenodd" clip-rule="evenodd" d="M116.574,117.736c3.958,0,7.166,3.207,7.166,7.167    c0,3.958-3.208,7.17-7.166,7.17h-17.07V429.83h312.997v-17.506c0-3.957,3.207-7.172,7.167-7.172c3.958,0,7.17,3.215,7.17,7.172    v24.672c0,3.959-3.212,7.171-7.17,7.171H92.332c-3.957,0-7.17-3.212-7.17-7.171V75.005c0-3.961,3.213-7.172,7.17-7.172h327.336    c3.958,0,7.17,3.211,7.17,7.172v316.541c0,3.958-3.212,7.166-7.17,7.166c-3.96,0-7.167-3.208-7.167-7.166V132.073H140.812    c-3.958,0-7.167-3.212-7.167-7.17c0-3.96,3.209-7.167,7.167-7.167h271.689V82.169H99.504v35.567H116.574L116.574,117.736z     M164.145,329.688l13.328,13.331l-13.328,13.333c-2.801,2.797-2.801,7.331,0,10.133c2.8,2.801,7.338,2.801,10.134,0l13.333-13.329    l13.324,13.329c2.8,2.801,7.343,2.801,10.139,0c2.799-2.802,2.799-7.336,0-10.133l-13.33-13.333l13.33-13.331    c2.799-2.799,2.799-7.336,0-10.133c-2.796-2.801-7.339-2.801-10.139,0l-13.324,13.328l-13.333-13.328    c-2.796-2.801-7.334-2.801-10.134,0C161.344,322.352,161.344,326.889,164.145,329.688L164.145,329.688z M140.812,160.928    c-3.958,0-7.167,3.211-7.167,7.171v93.591c0,3.957,3.209,7.167,7.167,7.167h93.592c3.957,0,7.17-3.21,7.17-7.167v-93.591    c0-3.96-3.213-7.171-7.17-7.171H140.812L140.812,160.928z M227.236,175.265h-79.255v79.254h79.255V175.265L227.236,175.265z     M364.018,175.265h-79.254v79.254h79.254V175.265L364.018,175.265z M277.598,160.928c-3.958,0-7.17,3.211-7.17,7.171v93.591    c0,3.957,3.212,7.167,7.17,7.167h93.592c3.957,0,7.172-3.21,7.172-7.167v-93.591c0-3.96-3.215-7.171-7.172-7.171H277.598    L277.598,160.928z M140.812,289.053c-3.958,0-7.167,3.211-7.167,7.17v93.591c0,3.962,3.209,7.17,7.167,7.17h93.592    c3.957,0,7.17-3.208,7.17-7.17v-93.591c0-3.959-3.213-7.17-7.17-7.17H140.812L140.812,289.053z M227.236,303.393h-79.255v79.254    h79.255V303.393L227.236,303.393z M364.018,303.393h-79.254v79.254h79.254V303.393L364.018,303.393z M277.598,289.053    c-3.958,0-7.17,3.211-7.17,7.17v93.591c0,3.962,3.212,7.17,7.17,7.17h93.592c3.957,0,7.172-3.208,7.172-7.17v-93.591    c0-3.959-3.215-7.17-7.172-7.17H277.598L277.598,289.053z M180.439,188.878v18.845h-18.85c-3.957,0-7.166,3.214-7.166,7.172    s3.209,7.164,7.166,7.164h18.85v18.853c0,3.958,3.213,7.167,7.172,7.167c3.957,0,7.167-3.209,7.167-7.167v-18.853h18.848    c3.961,0,7.168-3.206,7.168-7.164s-3.207-7.172-7.168-7.172h-18.848v-18.845c0-3.965-3.21-7.171-7.167-7.171    C183.652,181.707,180.439,184.913,180.439,188.878L180.439,188.878z M298.378,222.059h52.032c3.957,0,7.17-3.206,7.17-7.164    s-3.213-7.172-7.17-7.172h-52.032c-3.959,0-7.167,3.214-7.167,7.172S294.419,222.059,298.378,222.059L298.378,222.059z     M317.227,317.002v6.504c0,3.958,3.21,7.17,7.167,7.17c3.959,0,7.166-3.212,7.166-7.17v-6.504c0-3.96-3.207-7.168-7.166-7.168    C320.437,309.834,317.227,313.042,317.227,317.002L317.227,317.002z M317.227,362.533v6.506c0,3.959,3.21,7.165,7.167,7.165    c3.959,0,7.166-3.206,7.166-7.165v-6.506c0-3.956-3.207-7.172-7.166-7.172C320.437,355.361,317.227,358.577,317.227,362.533    L317.227,362.533z M298.378,350.188h52.032c3.957,0,7.17-3.211,7.17-7.169c0-3.96-3.213-7.167-7.17-7.167h-52.032    c-3.959,0-7.167,3.207-7.167,7.167C291.211,346.977,294.419,350.188,298.378,350.188z"/></g></g><text x="0" y="527" fill="#000000" font-size="5px" font-weight="bold" font-family="'Helvetica Neue', Helvetica, Arial-Unicode, Arial, Sans-serif">Created by irwansyah</text><text x="0" y="532" fill="#000000" font-size="5px" font-weight="bold" font-family="'Helvetica Neue', Helvetica, Arial-Unicode, Arial, Sans-serif">from the Noun Project</text></svg>